<svg width="18" height="18" viewBox="0 0 18 18" fill="none" xmlns="http://www.w3.org/2000/svg">
<g clip-path="url(#clip0_938_3720)">
<path d="M1.87504 17.6249H16.125V16.1249C16.125 15.2999 15.4501 14.625 14.6251 14.625H14.25H3.75009H3.37512C2.55 14.625 1.875 15.2999 1.875 16.1249L1.87504 17.6249Z" fill="black"/>
<path d="M3.75 14.6251H14.2499V9.3752C14.2499 6.48767 11.8875 4.12524 8.99995 4.12524C6.11239 4.12524 3.75 6.48764 3.75 9.3752V14.6251Z" fill="#F13939"/>
<path d="M14.6251 14.2498V9.37504C14.6251 6.27338 12.1018 3.75 9.00013 3.75C5.89847 3.75 3.37506 6.27338 3.37506 9.37504V14.2499C2.34115 14.2499 1.5 15.091 1.5 16.1249V17.6248C1.5 17.832 1.66794 17.9999 1.87508 17.9999H16.125C16.3322 17.9999 16.5001 17.832 16.5001 17.6248V16.1249C16.5001 15.091 15.659 14.2498 14.6251 14.2498ZM9.00013 4.50013C11.6881 4.50013 13.875 6.68699 13.875 9.375V14.2498H9.37521V10.8275C10.0215 10.6605 10.5002 10.0726 10.5002 9.37496C10.5002 8.54781 9.82732 7.87488 9.00016 7.87488C8.17301 7.87488 7.50012 8.54781 7.50012 9.37496C7.50012 10.0726 7.97891 10.6606 8.62512 10.8275V14.2498H4.12522V9.37504C4.12522 6.68699 6.31215 4.50013 9.00013 4.50013ZM9.00013 10.1249C8.58662 10.1249 8.25021 9.78851 8.25021 9.37504C8.25021 8.96153 8.58662 8.62508 9.00013 8.62508C9.41364 8.62508 9.75008 8.96153 9.75008 9.37504C9.75008 9.78851 9.41364 10.1249 9.00013 10.1249ZM15.75 17.2498H2.25016V16.1249C2.25016 15.5046 2.75487 15 3.3752 15H14.6251C15.2454 15 15.75 15.5047 15.75 16.1249V17.2498Z" fill="white"/>
<path d="M2.43759 9.37508C2.43759 9.16794 2.26969 9 2.06251 9H0.375082C0.167906 9 0 9.16791 0 9.37508C0 9.58222 0.167906 9.75016 0.375082 9.75016H2.06255C2.26972 9.75013 2.43759 9.58222 2.43759 9.37508Z" fill="white"/>
<path d="M5.20646 3.55457C5.27593 3.67491 5.40203 3.74217 5.53165 3.74217C5.59525 3.74217 5.65976 3.72596 5.71883 3.69186C5.89823 3.58829 5.95968 3.35889 5.85611 3.17953L5.01243 1.71812C4.90883 1.53871 4.67943 1.47726 4.5001 1.58083C4.3207 1.6844 4.25924 1.9138 4.36281 2.09316L5.20646 3.55457Z" fill="white"/>
<path d="M9.00008 2.81278C9.20722 2.81278 9.37516 2.64487 9.37516 2.4377V0.375082C9.37516 0.167906 9.20722 0 9.00008 0C8.79298 0 8.625 0.167906 8.625 0.375082V2.43766C8.625 2.64484 8.79298 2.81278 9.00008 2.81278Z" fill="white"/>
<path d="M1.01817 5.19987L2.80428 6.23115C2.86335 6.26525 2.92786 6.28145 2.99149 6.28145C3.12111 6.28145 3.24718 6.21416 3.31665 6.0939C3.42026 5.91449 3.35877 5.6851 3.17937 5.58156L1.39325 4.55029C1.21392 4.44675 0.98449 4.50821 0.88092 4.68758C0.777279 4.86687 0.838768 5.0963 1.01817 5.19987Z" fill="white"/>
<path d="M15.0083 6.28151C15.0718 6.28151 15.1364 6.26531 15.1955 6.2312L16.9816 5.19993C17.161 5.09636 17.2225 4.86697 17.1189 4.6876C17.0153 4.5082 16.7859 4.44674 16.6066 4.55031L14.8204 5.58159C14.641 5.68516 14.5796 5.91455 14.6831 6.09392C14.7525 6.21426 14.8786 6.28151 15.0083 6.28151Z" fill="white"/>
<path d="M12.2813 3.69186C12.3404 3.72596 12.4049 3.74217 12.4685 3.74217C12.5982 3.74217 12.7242 3.67488 12.7937 3.55457L13.6374 2.09316C13.741 1.91376 13.6795 1.68437 13.5001 1.58083C13.3208 1.47726 13.0914 1.53871 12.9878 1.71812L12.144 3.17949C12.0405 3.35893 12.1019 3.58832 12.2813 3.69186Z" fill="white"/>
<path d="M17.6251 9H15.9376C15.7304 9 15.5625 9.16791 15.5625 9.37508C15.5625 9.58222 15.7304 9.75016 15.9376 9.75016H17.6251C17.8322 9.75016 18.0002 9.58226 18.0002 9.37508C18.0002 9.16791 17.8323 9 17.6251 9Z" fill="white"/>
<path d="M5.25008 9.75006C5.45722 9.75006 5.62516 9.58215 5.62516 9.37497V9.35799C5.62516 9.15085 5.45726 8.98291 5.25008 8.98291C5.04298 8.98291 4.875 9.15082 4.875 9.35799V9.37497C4.87504 9.58215 5.04294 9.75006 5.25008 9.75006Z" fill="white"/>
<path d="M5.31249 8.59782C5.35021 8.60978 5.38843 8.61551 5.42601 8.61551C5.58509 8.61551 5.73275 8.51352 5.78341 8.35384C6.23035 6.94604 7.52304 6.00016 9.0001 6.00016C9.20724 6.00016 9.37518 5.83226 9.37518 5.62508C9.37518 5.41794 9.20727 5.25 9.0001 5.25C7.19468 5.25 5.61469 6.40611 5.06843 8.12684C5.00582 8.32427 5.11505 8.53514 5.31249 8.59782Z" fill="white"/>
<path d="M13.1639 15.7498H11.2501C11.0429 15.7498 10.875 15.9177 10.875 16.1248C10.875 16.332 11.0429 16.4999 11.2501 16.4999H13.1639C13.371 16.4999 13.539 16.332 13.539 16.1248C13.539 15.9177 13.371 15.7498 13.1639 15.7498Z" fill="white"/>
<path d="M14.2497 15.75H14.2408C14.0337 15.75 13.8657 15.9179 13.8657 16.1251C13.8657 16.3322 14.0336 16.5002 14.2408 16.5002H14.2497C14.4568 16.5002 14.6248 16.3323 14.6248 16.1251C14.6248 15.9179 14.4568 15.75 14.2497 15.75Z" fill="white"/>
</g>
<defs>
<clipPath id="clip0_938_3720">
<rect width="18" height="18" fill="white"/>
</clipPath>
</defs>
</svg>
