<svg width="33" height="33" viewBox="0 0 33 33" fill="none" xmlns="http://www.w3.org/2000/svg">
<circle cx="16.5" cy="16.5" r="16.5" fill="black"/>
<path d="M13 17.316C13 15.4875 11.2166 14 9.02454 14C6.83351 14 5.05094 15.4875 5.05094 17.316C5.05094 18.5344 5.84178 19.6007 7.01673 20.1779C5.75094 20.7942 5 22.0523 5 23.7196V26.4677C5 26.7617 5.28542 27 5.63752 27H12.334C12.6861 27 12.9715 26.7617 12.9715 26.4677V23.7196C12.9715 22.0695 12.2362 20.8198 10.9939 20.1968C12.191 19.6244 13 18.5479 13 17.316ZM11.6965 23.8051V25.9354H6.27504V23.8051H11.6965ZM11.5728 22.7406H6.39866C6.62651 21.8654 7.2602 20.8214 8.98572 20.8214C10.7112 20.8214 11.3449 21.8654 11.5728 22.7406ZM9.02454 19.5699C7.53657 19.5699 6.32598 18.5588 6.32598 17.316C6.32598 16.0745 7.53657 15.0646 9.02454 15.0646C10.5135 15.0646 11.725 16.0745 11.725 17.316C11.725 18.5588 10.5135 19.5699 9.02454 19.5699Z" fill="white"/>
<path d="M25.8401 20.2339C26.8893 19.6357 27.5885 18.5779 27.5885 17.3744C27.5885 15.5137 25.9161 14 23.8604 14C21.8049 14 20.1327 15.5137 20.1327 17.3744C20.1327 18.5295 20.7766 19.5505 21.7558 20.1597C20.651 20.8109 20 22.0567 20 23.6877V26.4843C20 26.7834 20.2677 27.0259 20.5979 27.0259H26.8784C27.2086 27.0259 27.4763 26.7834 27.4763 26.4843V23.6877C27.4763 22.1166 26.872 20.903 25.8401 20.2339ZM21.3286 17.3744C21.3286 16.1111 22.4644 15.0833 23.8605 15.0833C25.2568 15.0833 26.3928 16.1111 26.3928 17.3744C26.3928 18.5939 25.3364 19.5938 24.009 19.6637C23.9199 19.6586 23.83 19.6551 23.7382 19.6551C23.6996 19.6551 23.6616 19.6567 23.6233 19.6575C22.3381 19.5489 21.3286 18.5666 21.3286 17.3744ZM23.5934 20.7417C23.6816 20.7474 23.7705 20.7513 23.8605 20.7513C23.9058 20.7513 23.9506 20.7497 23.9955 20.7482C25.4204 20.8551 25.9626 21.8498 26.1646 22.6914H21.3118C21.519 21.8281 22.0843 20.8034 23.5934 20.7417ZM26.2805 25.9426H21.1958V23.7748H26.2805V25.9426Z" fill="white"/>
<path d="M20.6351 21.3149L16.9825 19.9538V16.734C16.9825 16.6086 16.935 16.4935 16.856 16.4016H19.6446C19.9747 16.4016 20.2425 16.1591 20.2425 15.8599V12.6877C20.2425 11.08 19.6105 9.8458 18.5341 9.18729C19.5371 8.58144 20.1995 7.54756 20.1995 6.37583C20.1995 4.51439 18.5272 3 16.4718 3C14.4166 3 12.7447 4.51439 12.7447 6.37577C12.7447 7.56067 13.4222 8.6043 14.4441 9.20717C13.3865 9.87034 12.7661 11.0956 12.7661 12.6877V15.8599C12.7661 16.159 13.0338 16.4015 13.364 16.4015H15.9132C15.8342 16.4933 15.7867 16.6085 15.7867 16.734V19.9421L12.3362 21.1561C12.0284 21.2644 11.8758 21.5782 11.9953 21.8571C12.0873 22.0715 12.3133 22.2028 12.5528 22.2028C12.6248 22.2028 12.698 22.191 12.7691 22.1659L16.3729 20.898L20.1802 22.3167C20.2546 22.3444 20.3316 22.3575 20.4075 22.3575C20.6427 22.3575 20.8656 22.231 20.9606 22.0218C21.0863 21.7452 20.9406 21.4287 20.6351 21.3149ZM13.9405 6.37577C13.9405 5.11174 15.0761 4.08333 16.4718 4.08333C17.8679 4.08333 19.0037 5.11174 19.0037 6.37577C19.0037 7.5708 17.9896 8.55479 16.7002 8.65977C16.6357 8.65711 16.5706 8.65549 16.5047 8.65549C16.4257 8.65549 16.3479 8.65787 16.2708 8.66166C14.9688 8.56844 13.9405 7.57925 13.9405 6.37577ZM16.2637 9.74738C16.3326 9.75079 16.402 9.7529 16.4718 9.7529C16.553 9.7529 16.6334 9.74971 16.7133 9.74505C17.9289 9.81785 18.5152 10.5276 18.7955 11.2542H14.2131C14.491 10.5341 15.0697 9.83074 16.2637 9.74738ZM13.9619 15.3183V12.6877C13.9619 12.5957 13.9653 12.4759 13.9764 12.3376H19.0321C19.0433 12.4759 19.0466 12.5957 19.0466 12.6877V15.3183H13.9619Z" fill="white"/>
</svg>
