<svg width="36" height="36" viewBox="0 0 36 36" fill="none" xmlns="http://www.w3.org/2000/svg">
<g filter="url(#filter0_d_955_1107)">
<circle cx="18" cy="14" r="14" fill="#F13939"/>
<circle cx="18" cy="14" r="13.7" stroke="white" stroke-width="0.6"/>
</g>
<g clip-path="url(#clip0_955_1107)">
<path d="M10.875 22.6249H25.125V21.1249C25.125 20.2999 24.4501 19.625 23.6251 19.625H23.25H12.7501H12.3751C11.55 19.625 10.875 20.2999 10.875 21.1249L10.875 22.6249Z" fill="black"/>
<path d="M12.75 19.625H23.2499V14.3751C23.2499 11.4876 20.8875 9.12512 18 9.12512C15.1124 9.12512 12.75 11.4875 12.75 14.3751V19.625Z" fill="#F13939"/>
<path d="M23.6251 19.25V14.3752C23.6251 11.2735 21.1018 8.75012 18.0001 8.75012C14.8985 8.75012 12.3751 11.2735 12.3751 14.3752V19.25C11.3411 19.25 10.5 20.0911 10.5 21.125V22.625C10.5 22.8321 10.6679 23 10.8751 23H25.125C25.3322 23 25.5001 22.8321 25.5001 22.625V21.125C25.5001 20.0911 24.659 19.25 23.6251 19.25ZM18.0001 9.50025C20.6881 9.50025 22.875 11.6871 22.875 14.3751V19.25H18.3752V15.8276C19.0215 15.6606 19.5002 15.0728 19.5002 14.3751C19.5002 13.5479 18.8273 12.875 18.0002 12.875C17.173 12.875 16.5001 13.5479 16.5001 14.3751C16.5001 15.0728 16.9789 15.6607 17.6251 15.8276V19.25H13.1252V14.3752C13.1252 11.6871 15.3122 9.50025 18.0001 9.50025ZM18.0001 15.125C17.5866 15.125 17.2502 14.7886 17.2502 14.3752C17.2502 13.9616 17.5866 13.6252 18.0001 13.6252C18.4136 13.6252 18.7501 13.9616 18.7501 14.3752C18.7501 14.7886 18.4136 15.125 18.0001 15.125ZM24.75 22.2499H11.2502V21.125C11.2502 20.5047 11.7549 20.0002 12.3752 20.0002H23.6251C24.2454 20.0002 24.75 20.5048 24.75 21.125V22.2499Z" fill="white"/>
<path d="M11.4376 14.3751C11.4376 14.1679 11.2697 14 11.0625 14H9.37508C9.16791 14 9 14.1679 9 14.3751C9 14.5822 9.16791 14.7502 9.37508 14.7502H11.0625C11.2697 14.7501 11.4376 14.5822 11.4376 14.3751Z" fill="white"/>
<path d="M14.2065 8.5547C14.2759 8.67503 14.402 8.74229 14.5317 8.74229C14.5953 8.74229 14.6598 8.72608 14.7188 8.69198C14.8982 8.58841 14.9597 8.35902 14.8561 8.17965L14.0124 6.71824C13.9088 6.53884 13.6794 6.47738 13.5001 6.58095C13.3207 6.68452 13.2592 6.91392 13.3628 7.09329L14.2065 8.5547Z" fill="white"/>
<path d="M18.0001 7.81278C18.2072 7.81278 18.3752 7.64487 18.3752 7.4377V5.37508C18.3752 5.16791 18.2072 5 18.0001 5C17.793 5 17.625 5.16791 17.625 5.37508V7.43766C17.625 7.64484 17.793 7.81278 18.0001 7.81278Z" fill="white"/>
<path d="M10.0184 10.1999L11.8045 11.2311C11.8636 11.2652 11.9281 11.2815 11.9917 11.2815C12.1214 11.2815 12.2474 11.2142 12.3169 11.0939C12.4205 10.9145 12.359 10.6851 12.1796 10.5816L10.3935 9.55029C10.2142 9.44675 9.98473 9.50821 9.88116 9.68758C9.77752 9.86687 9.83901 10.0963 10.0184 10.1999Z" fill="white"/>
<path d="M24.0083 11.2815C24.0718 11.2815 24.1364 11.2653 24.1955 11.2312L25.9816 10.1999C26.161 10.0964 26.2225 9.86697 26.1189 9.6876C26.0153 9.5082 25.7859 9.44674 25.6066 9.55031L23.8204 10.5816C23.641 10.6852 23.5796 10.9146 23.6831 11.0939C23.7525 11.2143 23.8786 11.2815 24.0083 11.2815Z" fill="white"/>
<path d="M21.2811 8.69186C21.3402 8.72596 21.4046 8.74217 21.4683 8.74217C21.5979 8.74217 21.724 8.67488 21.7935 8.55457L22.6372 7.09316C22.7408 6.91376 22.6793 6.68437 22.4999 6.58083C22.3205 6.47726 22.0911 6.53871 21.9876 6.71812L21.1438 8.17949C21.0403 8.35893 21.1017 8.58832 21.2811 8.69186Z" fill="white"/>
<path d="M26.6249 14H24.9373C24.7302 14 24.5623 14.1679 24.5623 14.3751C24.5623 14.5822 24.7302 14.7502 24.9373 14.7502H26.6249C26.8319 14.7502 27 14.5823 27 14.3751C27 14.1679 26.832 14 26.6249 14Z" fill="white"/>
<path d="M14.2501 14.7502C14.4572 14.7502 14.6252 14.5823 14.6252 14.3751V14.3581C14.6252 14.151 14.4573 13.983 14.2501 13.983C14.043 13.983 13.875 14.1509 13.875 14.3581V14.3751C13.875 14.5823 14.0429 14.7502 14.2501 14.7502Z" fill="white"/>
<path d="M14.3125 13.5978C14.3502 13.6098 14.3884 13.6155 14.426 13.6155C14.5851 13.6155 14.7327 13.5135 14.7834 13.3538C15.2303 11.946 16.523 11.0002 18.0001 11.0002C18.2072 11.0002 18.3752 10.8323 18.3752 10.6251C18.3752 10.4179 18.2073 10.25 18.0001 10.25C16.1947 10.25 14.6147 11.4061 14.0684 13.1268C14.0058 13.3243 14.1151 13.5351 14.3125 13.5978Z" fill="white"/>
<path d="M22.1636 20.7499H20.2498C20.0427 20.7499 19.8748 20.9178 19.8748 21.125C19.8748 21.3321 20.0427 21.5 20.2498 21.5H22.1636C22.3707 21.5 22.5387 21.3321 22.5387 21.125C22.5387 20.9178 22.3708 20.7499 22.1636 20.7499Z" fill="white"/>
<path d="M23.25 20.75H23.241C23.0339 20.75 22.866 20.9179 22.866 21.1251C22.866 21.3322 23.0339 21.5002 23.241 21.5002H23.25C23.4571 21.5002 23.6251 21.3323 23.6251 21.1251C23.6251 20.9179 23.4571 20.75 23.25 20.75Z" fill="white"/>
</g>
<defs>
<filter id="filter0_d_955_1107" x="0" y="0" width="36" height="36" filterUnits="userSpaceOnUse" color-interpolation-filters="sRGB">
<feFlood flood-opacity="0" result="BackgroundImageFix"/>
<feColorMatrix in="SourceAlpha" type="matrix" values="0 0 0 0 0 0 0 0 0 0 0 0 0 0 0 0 0 0 127 0" result="hardAlpha"/>
<feOffset dy="4"/>
<feGaussianBlur stdDeviation="2"/>
<feComposite in2="hardAlpha" operator="out"/>
<feColorMatrix type="matrix" values="0 0 0 0 0 0 0 0 0 0 0 0 0 0 0 0 0 0 0.25 0"/>
<feBlend mode="normal" in2="BackgroundImageFix" result="effect1_dropShadow_955_1107"/>
<feBlend mode="normal" in="SourceGraphic" in2="effect1_dropShadow_955_1107" result="shape"/>
</filter>
<clipPath id="clip0_955_1107">
<rect width="18" height="18" fill="white" transform="translate(9 5)"/>
</clipPath>
</defs>
</svg>
