<?xml version="1.0" encoding="utf-8"?>
<!-- Generator: Adobe Illustrator 28.1.0, SVG Export Plug-In . SVG Version: 6.00 Build 0)  -->
<svg version="1.1" id="Layer_1" xmlns="http://www.w3.org/2000/svg" xmlns:xlink="http://www.w3.org/1999/xlink" x="0px" y="0px"
	 viewBox="0 0 841.89 595.28" style="enable-background:new 0 0 841.89 595.28;" xml:space="preserve">
<style type="text/css">
	.st0{fill:#FFFFFF;}
	.st1{fill:#60BE7C;}
</style>
<path class="st0" d="M396.34,345.06"/>
<path class="st1" d="M543.91,433.25H302.54c-17.31,0-31.34-14.03-31.34-31.34V183.93c0-17.31,14.03-31.34,31.34-31.34h241.37
	c17.31,0,31.34,14.03,31.34,31.34v217.98C575.25,419.22,561.22,433.25,543.91,433.25z"/>
<g>
	<polyline points="389.2,239.25 400.2,247.6 334.21,345.06 322.08,337.47 	"/>
	<path d="M384.83,337.64l63.12-92.34c0,0,7.71-10.15,13.39,0s63.32,92.34,63.32,92.34l-10.76,7.42l-59.16-84.34l-58.4,84.34"/>
</g>
</svg>
