<svg width="40" height="40" viewBox="0 0 40 40" fill="none" xmlns="http://www.w3.org/2000/svg">
<g filter="url(#filter0_d_1396_1184)">
<circle cx="20" cy="16" r="15" fill="white" shape-rendering="crispEdges"/>
<circle cx="20" cy="16" r="15.025" stroke="black" stroke-opacity="0.44" stroke-width="0.05" shape-rendering="crispEdges"/>
</g>
<path fill-rule="evenodd" clip-rule="evenodd" d="M20.7658 15.5C20.7658 15.1376 20.4999 14.8438 20.172 14.8438H11.4854L13.0376 13.3733C13.2866 13.1374 13.3154 12.7231 13.102 12.4479C12.8886 12.1727 12.5138 12.1409 12.2648 12.3768L9.49397 15.0018C9.36236 15.1264 9.28662 15.3085 9.28662 15.5C9.28662 15.6915 9.36236 15.8736 9.49397 15.9982L12.2648 18.6232C12.5138 18.8591 12.8886 18.8273 13.102 18.5521C13.3154 18.2769 13.2866 17.8626 13.0376 17.6268L11.4854 16.1563H20.172C20.4999 16.1563 20.7658 15.8624 20.7658 15.5Z" fill="black"/>
<path d="M15.4219 12C15.4219 12.6144 15.4219 12.9216 15.5553 13.1423C15.613 13.2379 15.6873 13.3199 15.7737 13.3838C15.9734 13.5312 16.2514 13.5312 16.8073 13.5312H20.1719C21.1556 13.5312 21.9531 14.4126 21.9531 15.5C21.9531 16.5873 21.1556 17.4687 20.1719 17.4687H16.8073C16.2514 17.4687 15.9733 17.4687 15.7737 17.6162C15.6873 17.6801 15.6131 17.762 15.5553 17.8576C15.4219 18.0783 15.4219 18.3855 15.4219 19C15.4219 21.4748 15.4219 22.7123 16.1175 23.4811C16.8132 24.25 17.9326 24.25 20.1717 24.25H20.9634C23.2025 24.25 24.3221 24.25 25.0177 23.4811C25.7134 22.7123 25.7134 21.4748 25.7134 19V12C25.7134 9.52513 25.7134 8.28769 25.0177 7.51884C24.3221 6.75 23.2025 6.75 20.9634 6.75H20.1717C17.9326 6.75 16.8132 6.75 16.1175 7.51884C15.4219 8.28769 15.4219 9.52512 15.4219 12Z" fill="black"/>
<defs>
<filter id="filter0_d_1396_1184" x="0.950195" y="0.950012" width="38.0996" height="38.1" filterUnits="userSpaceOnUse" color-interpolation-filters="sRGB">
<feFlood flood-opacity="0" result="BackgroundImageFix"/>
<feColorMatrix in="SourceAlpha" type="matrix" values="0 0 0 0 0 0 0 0 0 0 0 0 0 0 0 0 0 0 127 0" result="hardAlpha"/>
<feOffset dy="4"/>
<feGaussianBlur stdDeviation="2"/>
<feComposite in2="hardAlpha" operator="out"/>
<feColorMatrix type="matrix" values="0 0 0 0 0 0 0 0 0 0 0 0 0 0 0 0 0 0 0.25 0"/>
<feBlend mode="normal" in2="BackgroundImageFix" result="effect1_dropShadow_1396_1184"/>
<feBlend mode="normal" in="SourceGraphic" in2="effect1_dropShadow_1396_1184" result="shape"/>
</filter>
</defs>
</svg>
